<svg xmlns="http://www.w3.org/2000/svg" viewBox="0 0 612 612" enable-background="new 0 0 612 612">
<linearGradient id="SVGID_1_" gradientUnits="userSpaceOnUse" x1="171.8594" y1="496.5518" x2="440.1427" y2="-240.5509" gradientTransform="matrix(1 0 0 -1 0 434)">
	<stop  offset="0" style="stop-color:#FFFFED"/>
	<stop  offset="1" style="stop-color:#FCF0F0"/>
</linearGradient>
<rect fill="url(#SVGID_1_)" width="612" height="612"/>
<g fill="#B3E9F9">
	<path d="M92.093,30.485h519.561v-6H92.093h-6H49.104c-12.394,0-22.477,10.083-22.477,22.477v33.117
		c0,12.394,10.083,22.477,22.477,22.477h36.988v14.084c0,12.394,10.083,22.477,22.477,22.477h503.083v-6H108.569
		c-9.085,0-16.477-7.391-16.477-16.477v-14.084L92.093,30.485L92.093,30.485z"/>
	<path d="M86.093,318.721H49.104c-12.394,0-22.477,10.084-22.477,22.478v33.116
		c0,12.395,10.083,22.478,22.477,22.478h36.988v14.084c0,12.394,10.083,22.477,22.477,22.477h503.083v-6H108.569
		c-9.085,0-16.477-7.392-16.477-16.477v-14.084v-72.069h519.561v-6H92.093h-6V318.721z"/>
</g>
<g fill="#FFC0DA">
	<path d="M92.093,158.933h519.561v-6H92.093h-6H49.104c-12.394,0-22.477,10.083-22.477,22.477v33.117
		c0,12.394,10.083,22.477,22.477,22.477h36.988v51.121c0,12.394,10.083,22.477,22.477,22.477h503.083v-6H108.569
		c-9.085,0-16.477-7.391-16.477-16.477v-51.121L92.093,158.933L92.093,158.933z"/>
	<path d="M86.093,447.168H49.104c-12.394,0-22.477,10.083-22.477,22.477v33.117
		c0,12.395,10.083,22.478,22.477,22.478h36.988v51.12c0,12.394,10.083,22.477,22.477,22.477h503.083v-6H108.569
		c-9.085,0-16.477-7.392-16.477-16.477v-51.12v-72.07h519.561v-6H92.093L86.093,447.168L86.093,447.168z"/>
</g>
<g fill="#47748B">
	<path d="M114.798,116.287l-11.845-69.42h14.008l3.398,27.706c0.928,7.931,1.545,15.862,2.369,24.308h0.31
		c0.927-8.549,2.472-16.068,3.913-24.411l4.944-27.603h10.918l4.635,27.397c1.235,7.828,2.472,15.552,3.296,24.616h0.206
		c0.927-9.064,1.75-16.479,2.678-24.514l3.398-27.5h13.184l-12.257,69.42h-13.904l-4.12-22.762
		c-1.133-6.386-2.162-14.317-3.09-22.762h-0.206c-1.235,8.343-2.368,16.067-3.811,22.865l-4.635,22.659L114.798,116.287
		L114.798,116.287z"/>
	<path d="M209.454,116.287V89.714L194.21,46.867h14.42l4.635,16.583c1.339,4.429,2.678,9.579,3.708,14.729h0.206
		c0.823-5.047,1.956-10.094,3.192-15.038l4.12-16.273H238.5L222.947,89.2v27.088L209.454,116.287L209.454,116.287z"/>
	<path d="M265.487,102.485c2.781,1.545,7.622,2.678,11.433,2.678c6.283,0,9.476-3.296,9.476-7.828
		c0-5.047-3.09-7.519-8.96-11.33c-9.477-5.768-13.081-13.081-13.081-19.363c0-11.124,7.416-20.394,21.835-20.394
		c4.635,0,8.961,1.236,10.918,2.472l-2.163,11.639c-1.957-1.236-4.943-2.369-8.755-2.369c-5.768,0-8.549,3.502-8.549,7.21
		c0,4.12,2.061,6.283,9.477,10.814c9.27,5.562,12.565,12.566,12.565,19.878c0,12.669-9.373,21.012-22.865,21.012
		c-5.562,0-10.918-1.442-13.287-2.781L265.487,102.485z"/>
	<path d="M345.312,46.867v69.42h-13.494v-69.42H345.312z"/>
	<path d="M388.777,116.287l-11.847-69.42h14.009l3.397,27.706c0.928,7.931,1.545,15.862,2.369,24.308h0.311
		c0.927-8.549,2.472-16.068,3.912-24.411l4.945-27.603h10.918l4.635,27.397c1.234,7.828,2.472,15.552,3.295,24.616h0.207
		c0.927-9.064,1.75-16.479,2.679-24.514l3.397-27.5h13.185l-12.259,69.42h-13.903l-4.119-22.762
		c-1.133-6.386-2.162-14.317-3.09-22.762h-0.207c-1.234,8.343-2.367,16.067-3.812,22.865l-4.635,22.659L388.777,116.287
		L388.777,116.287z"/>
	<path d="M483.432,116.287V89.714L468.19,46.867h14.42l4.635,16.583c1.338,4.429,2.678,9.579,3.707,14.729h0.207
		c0.822-5.047,1.955-10.094,3.19-15.038l4.121-16.273h14.009L496.926,89.2v27.088L483.432,116.287L483.432,116.287z"/>
	<path d="M579.016,114.433c-2.987,1.236-9.271,2.472-14.317,2.472c-8.033,0-14.109-2.266-18.642-6.901
		c-5.975-5.768-9.168-16.067-8.961-28.015c0.31-25.234,14.625-35.74,29.56-35.74c5.254,0,9.063,1.03,11.227,2.06l-2.266,11.639
		c-2.06-1.03-4.635-1.545-7.931-1.545c-9.27,0-16.584,6.283-16.584,24.307c0,16.686,6.49,22.763,12.875,22.763
		c1.236,0,2.164-0.103,2.679-0.309V88.375h-6.281V77.354h18.643L579.016,114.433L579.016,114.433z"/>
	<path d="M114.798,410.522l-11.845-69.421h14.008l3.398,27.707c0.928,7.93,1.545,15.86,2.369,24.308h0.31
		c0.927-8.55,2.472-16.067,3.913-24.41l4.944-27.604h10.918l4.635,27.397c1.235,7.827,2.472,15.553,3.296,24.616h0.206
		c0.927-9.063,1.75-16.479,2.678-24.514l3.398-27.5h13.184l-12.257,69.42h-13.904l-4.12-22.764
		c-1.133-6.386-2.162-14.316-3.09-22.762h-0.206c-1.235,8.343-2.368,16.066-3.811,22.865l-4.635,22.658h-13.389V410.522z"/>
	<path d="M209.454,410.522v-26.573l-15.243-42.848h14.42l4.635,16.584c1.339,4.428,2.678,9.578,3.708,14.729h0.206
		c0.823-5.047,1.956-10.094,3.192-15.038l4.12-16.272H238.5l-15.553,42.332v27.088L209.454,410.522L209.454,410.522z"/>
	<path d="M265.487,396.721c2.781,1.545,7.622,2.679,11.433,2.679c6.283,0,9.476-3.296,9.476-7.827
		c0-5.047-3.09-7.52-8.96-11.33c-9.477-5.768-13.081-13.08-13.081-19.363c0-11.124,7.416-20.395,21.835-20.395
		c4.635,0,8.961,1.236,10.918,2.474l-2.163,11.638c-1.957-1.234-4.943-2.367-8.755-2.367c-5.768,0-8.549,3.502-8.549,7.209
		c0,4.119,2.061,6.283,9.477,10.814c9.27,5.562,12.565,12.564,12.565,19.878c0,12.669-9.373,21.012-22.865,21.012
		c-5.562,0-10.918-1.441-13.287-2.78L265.487,396.721z"/>
	<path d="M345.312,341.104v69.42h-13.494v-69.42H345.312L345.312,341.104z"/>
	<path d="M388.777,410.522l-11.847-69.421h14.009l3.397,27.707c0.928,7.93,1.545,15.86,2.369,24.308h0.311
		c0.927-8.55,2.472-16.067,3.912-24.41l4.945-27.604h10.918l4.635,27.397c1.234,7.827,2.472,15.553,3.295,24.616h0.207
		c0.927-9.063,1.75-16.479,2.679-24.514l3.397-27.5h13.185l-12.259,69.42h-13.903l-4.119-22.764
		c-1.133-6.386-2.162-14.316-3.09-22.762h-0.207c-1.234,8.343-2.367,16.066-3.812,22.865l-4.635,22.658h-13.388V410.522z"/>
	<path d="M483.432,410.522v-26.573l-15.241-42.848h14.42l4.635,16.584c1.338,4.428,2.678,9.578,3.707,14.729h0.207
		c0.822-5.047,1.955-10.094,3.19-15.038l4.121-16.272h14.009l-15.554,42.332v27.088L483.432,410.522L483.432,410.522z"/>
	<path d="M583.443,386.215c-0.412-6.592-0.822-15.552-0.722-22.968h-0.205c-1.235,7.416-3.09,15.964-4.43,21.319
		l-6.076,24.822h-9.477l-5.769-24.41c-1.338-5.562-3.192-14.213-4.325-21.731h-0.205c-0.207,7.519-0.722,16.272-1.029,23.174
		l-1.236,24.103h-11.537l4.945-69.42h14.316l5.561,25.131c1.855,8.755,3.605,16.479,4.842,24.308h0.31
		c1.03-7.726,2.576-15.553,4.326-24.308l5.562-25.131h14.213l4.224,69.42H584.68L583.443,386.215z"/>
</g>
<g fill="#FFFFFF">
	<path d="M41.048,217.442v-50.107h18.901c3.327,0,5.867,0.16,7.622,0.479c2.461,0.41,4.523,1.191,6.187,2.341
		c1.663,1.151,3.002,2.763,4.017,4.836c1.014,2.074,1.521,4.353,1.521,6.836c0,4.261-1.355,7.867-4.067,10.818
		s-7.61,4.426-14.697,4.426H47.679v20.371H41.048z M47.679,191.158h12.954c4.284,0,7.326-0.797,9.126-2.393
		c1.8-1.595,2.7-3.839,2.7-6.733c0-2.096-0.529-3.891-1.589-5.383c-1.06-1.492-2.456-2.478-4.188-2.957
		c-1.116-0.296-3.179-0.444-6.187-0.444H47.679V191.158z"/>
	<path d="M58.797,83.787c-2.438,0-4.506-0.769-6.204-2.307c-1.698-1.538-2.9-4.05-3.606-7.537l-6.152,0.82
		c0.41,4.17,2.068,7.565,4.973,10.186c2.905,2.621,6.557,3.931,10.955,3.931c4.876,0,8.909-1.521,12.1-4.563
		c3.19-3.042,4.785-6.75,4.785-11.125c0-3.235-0.82-5.93-2.461-8.083s-3.942-3.572-6.904-4.255c2.278-1.048,3.999-2.461,5.161-4.238
		c1.162-1.777,1.743-3.748,1.743-5.913c0-2.278-0.61-4.432-1.829-6.46c-1.219-2.028-2.979-3.628-5.281-4.802
		c-2.302-1.173-4.819-1.76-7.554-1.76c-3.965,0-7.28,1.134-9.946,3.401c-2.666,2.268-4.375,5.463-5.127,9.587l6.152,1.094
		c0.456-3.008,1.481-5.264,3.076-6.768c1.595-1.504,3.589-2.256,5.981-2.256c2.415,0,4.386,0.741,5.913,2.222
		c1.526,1.481,2.29,3.35,2.29,5.605c0,2.849-1.048,4.956-3.145,6.323c-2.097,1.367-4.455,2.051-7.075,2.051
		c-0.251,0-0.581-0.022-0.991-0.068l-0.684,5.4c1.731-0.456,3.179-0.684,4.341-0.684c2.848,0,5.195,0.917,7.041,2.751
		c1.846,1.834,2.769,4.165,2.769,6.99c0,2.962-0.997,5.446-2.991,7.451C64.134,82.785,61.69,83.787,58.797,83.787z"/>
	<path d="M66.282,355.088c2.278-1.048,3.999-2.461,5.161-4.238c1.162-1.776,1.743-3.748,1.743-5.912
		c0-2.278-0.61-4.433-1.829-6.461c-1.219-2.026-2.979-3.627-5.281-4.803c-2.302-1.173-4.819-1.76-7.554-1.76
		c-3.965,0-7.28,1.134-9.946,3.4c-2.666,2.269-4.375,5.463-5.127,9.588l6.152,1.094c0.456-3.008,1.481-5.264,3.076-6.768
		c1.595-1.504,3.589-2.256,5.981-2.256c2.415,0,4.386,0.74,5.913,2.221c1.526,1.481,2.29,3.351,2.29,5.605
		c0,2.85-1.048,4.956-3.145,6.323c-2.097,1.366-4.455,2.051-7.075,2.051c-0.251,0-0.581-0.022-0.991-0.067l-0.684,5.399
		c1.731-0.455,3.179-0.685,4.341-0.685c2.848,0,5.195,0.918,7.041,2.753c1.846,1.834,2.769,4.163,2.769,6.989
		c0,2.963-0.997,5.445-2.991,7.451s-4.438,3.008-7.332,3.008c-2.438,0-4.506-0.77-6.204-2.309c-1.698-1.537-2.9-4.05-3.606-7.536
		l-6.152,0.82c0.41,4.17,2.068,7.565,4.973,10.187c2.905,2.621,6.557,3.93,10.955,3.93c4.876,0,8.909-1.521,12.1-4.562
		c3.19-3.043,4.785-6.751,4.785-11.126c0-3.234-0.82-5.931-2.461-8.083C71.546,357.189,69.244,355.771,66.282,355.088z"/>
	<path d="M41.048,511.678V461.57h18.901c3.327,0,5.867,0.16,7.622,0.479c2.461,0.41,4.523,1.191,6.187,2.342
		c1.664,1.151,3.002,2.764,4.017,4.836c1.014,2.074,1.521,4.354,1.521,6.837c0,4.262-1.355,7.866-4.067,10.817
		s-7.61,4.426-14.697,4.426H47.679v20.371H41.048z M47.679,485.394h12.954c4.284,0,7.326-0.797,9.126-2.393
		c1.8-1.595,2.7-3.839,2.7-6.733c0-2.096-0.529-3.891-1.589-5.383s-2.456-2.479-4.188-2.957c-1.116-0.296-3.179-0.443-6.187-0.443
		H47.679V485.394z"/>
</g>
<g fill="#44473D">
	<path d="M114.636,218.155l-11.971-47.186h6.44l5.601,23.873c1.4,5.881,2.661,11.761,3.5,16.312h0.14
		c0.771-4.69,2.24-10.291,3.851-16.381l6.301-23.803h6.371l5.74,23.943c1.33,5.601,2.59,11.201,3.29,16.171h0.141
		c0.979-5.181,2.31-10.431,3.78-16.312l6.23-23.803h6.23l-13.371,47.185h-6.371l-5.95-24.573c-1.471-6.021-2.45-10.641-3.08-15.401
		h-0.141c-0.77,4.69-1.89,9.311-3.641,15.401l-6.721,24.573H114.636z"/>
	<path d="M165.595,168.45h6.161v21.212h0.14c0.98-1.75,2.521-3.36,4.41-4.41c1.82-1.05,3.991-1.68,6.301-1.68
		c4.551,0,11.831,2.8,11.831,14.421v20.162h-6.16v-19.462c0-5.461-2.03-10.011-7.841-10.011c-3.99,0-7.07,2.8-8.261,6.091
		c-0.351,0.91-0.42,1.82-0.42,2.94v20.442h-6.161V168.45L165.595,168.45z"/>
	<path d="M228.248,210.034c0,2.94,0.14,5.811,0.49,8.121h-5.531l-0.489-4.271h-0.21
		c-1.891,2.66-5.531,5.041-10.361,5.041c-6.861,0-10.361-4.831-10.361-9.731c0-8.191,7.281-12.671,20.372-12.602v-0.7
		c0-2.73-0.77-7.841-7.7-7.771c-3.221,0-6.511,0.91-8.892,2.521l-1.4-4.131c2.801-1.75,6.931-2.94,11.201-2.94
		c10.361,0,12.882,7.071,12.882,13.792L228.248,210.034L228.248,210.034z M222.296,200.863c-6.721-0.14-14.351,1.05-14.351,7.631
		c0,4.061,2.66,5.881,5.74,5.881c4.48,0,7.351-2.8,8.331-5.671c0.21-0.7,0.279-1.4,0.279-1.96L222.296,200.863L222.296,200.863z"/>
	<path d="M245.326,176.15v8.121h8.821v4.691h-8.821v18.272c0,4.2,1.19,6.581,4.62,6.581
		c1.681,0,2.661-0.14,3.571-0.42l0.279,4.691c-1.189,0.42-3.08,0.84-5.46,0.84c-2.871,0-5.181-0.98-6.651-2.59
		c-1.68-1.89-2.38-4.9-2.38-8.891v-18.482h-5.251v-4.691h5.251v-6.3L245.326,176.15z"/>
	<path d="M290.376,218.155v-20.022l-14.981-27.163h7.001l6.65,13.021c1.75,3.57,3.221,6.441,4.69,9.731h0.141
		c1.26-3.08,2.94-6.161,4.761-9.731l6.79-13.021h6.861l-15.751,27.093v20.092H290.376z"/>
	<path d="M342.879,200.933c0,12.531-8.752,17.992-16.871,17.992c-9.102,0-16.242-6.721-16.242-17.432
		c0-11.271,7.49-17.922,16.802-17.922C336.299,183.571,342.879,190.642,342.879,200.933z M316.066,201.283
		c0,7.42,4.198,13.021,10.221,13.021c5.881,0,10.291-5.53,10.291-13.161c0-5.741-2.871-12.951-10.15-12.951
		C319.217,188.192,316.066,194.913,316.066,201.283z"/>
	<path d="M378.998,208.844c0,3.57,0.07,6.651,0.279,9.312h-5.459l-0.353-5.531h-0.139
		c-1.541,2.73-5.183,6.301-11.201,6.301c-5.32,0-11.691-3.01-11.691-14.841v-19.812h6.16v18.692c0,6.44,2.031,10.851,7.562,10.851
		c4.131,0,7.002-2.871,8.121-5.671c0.35-0.84,0.561-1.96,0.561-3.15v-20.723h6.16V208.844z"/>
	<path d="M412.396,210.734c2.729,1.75,6.649,3.081,10.852,3.081c6.229,0,9.871-3.291,9.871-8.051
		c0-4.341-2.521-6.931-8.892-9.311c-7.7-2.8-12.461-6.861-12.461-13.441c0-7.351,6.091-12.812,15.261-12.812
		c4.762,0,8.332,1.12,10.36,2.311l-1.68,4.97c-1.471-0.91-4.621-2.24-8.891-2.24c-6.441,0-8.892,3.851-8.892,7.071
		c0,4.411,2.869,6.581,9.381,9.101c7.98,3.08,11.972,6.931,11.972,13.861c0,7.281-5.32,13.651-16.451,13.651
		c-4.551,0-9.521-1.4-12.041-3.08L412.396,210.734z"/>
	<path d="M451.316,202.333c0.141,8.331,5.391,11.761,11.621,11.761c4.409,0,7.141-0.77,9.381-1.75l1.121,4.41
		c-2.171,0.98-5.951,2.17-11.343,2.17c-10.432,0-16.662-6.931-16.662-17.152s6.021-18.202,15.894-18.202
		c11.131,0,14.002,9.661,14.002,15.892c0,1.26-0.07,2.17-0.211,2.87L451.316,202.333L451.316,202.333z M469.379,197.923
		c0.07-3.851-1.611-9.941-8.541-9.941c-6.301,0-8.961,5.671-9.451,9.941H469.379z"/>
	<path d="M486.387,202.333c0.14,8.331,5.392,11.761,11.621,11.761c4.41,0,7.142-0.77,9.381-1.75l1.119,4.41
		c-2.17,0.98-5.949,2.17-11.34,2.17c-10.432,0-16.662-6.931-16.662-17.152s6.021-18.202,15.892-18.202
		c11.133,0,14.002,9.661,14.002,15.892c0,1.26-0.07,2.17-0.209,2.87L486.387,202.333L486.387,202.333z M504.447,197.923
		c0.069-3.851-1.609-9.941-8.541-9.941c-6.299,0-8.961,5.671-9.449,9.941H504.447z"/>
	<path d="M113.026,238.97v47.185h-6.161V238.97H113.026z"/>
	<path d="M122.615,279.924c1.891,1.12,5.11,2.38,8.19,2.38c4.411,0,6.511-2.17,6.511-5.041
		c0-2.94-1.75-4.48-6.23-6.161c-6.16-2.24-9.031-5.53-9.031-9.591c0-5.46,4.48-9.941,11.691-9.941c3.431,0,6.441,0.91,8.261,2.1
		l-1.47,4.48c-1.33-0.84-3.78-2.03-6.931-2.03c-3.641,0-5.601,2.1-5.601,4.621c0,2.8,1.96,4.061,6.37,5.811
		c5.812,2.17,8.892,5.11,8.892,10.151c0,6.021-4.69,10.222-12.602,10.222c-3.71,0-7.141-0.98-9.521-2.381L122.615,279.924z"/>
	<path d="M178.796,286.155l-11.972-47.185h6.441l5.601,23.873c1.399,5.881,2.66,11.761,3.5,16.312h0.14
		c0.771-4.69,2.24-10.291,3.851-16.381l6.301-23.803h6.371l5.74,23.943c1.33,5.601,2.59,11.201,3.29,16.171h0.141
		c0.979-5.181,2.31-10.431,3.78-16.312l6.23-23.803h6.23l-13.371,47.185h-6.371l-5.95-24.573c-1.471-6.021-2.45-10.641-3.08-15.401
		h-0.141c-0.77,4.69-1.89,9.311-3.641,15.401l-6.721,24.573H178.796z"/>
	<path d="M229.755,236.45h6.161v21.212h0.14c0.98-1.75,2.521-3.36,4.41-4.41c1.82-1.05,3.991-1.68,6.301-1.68
		c4.551,0,11.831,2.8,11.831,14.421v20.162h-6.16v-19.462c0-5.461-2.03-10.011-7.841-10.011c-3.99,0-7.07,2.8-8.261,6.091
		c-0.351,0.91-0.42,1.82-0.42,2.94v20.442h-6.161V236.45L229.755,236.45z"/>
	<path d="M292.408,278.034c0,2.94,0.14,5.811,0.49,8.121h-5.531l-0.489-4.271h-0.21
		c-1.891,2.66-5.531,5.041-10.361,5.041c-6.861,0-10.361-4.831-10.361-9.731c0-8.191,7.281-12.671,20.372-12.602v-0.7
		c0-2.73-0.77-7.841-7.7-7.771c-3.221,0-6.511,0.91-8.892,2.521l-1.4-4.131c2.801-1.75,6.931-2.94,11.201-2.94
		c10.361,0,12.882,7.071,12.882,13.792L292.408,278.034L292.408,278.034z M286.457,268.863c-6.721-0.14-14.351,1.05-14.351,7.631
		c0,4.061,2.66,5.881,5.74,5.881c4.48,0,7.351-2.8,8.331-5.671c0.21-0.7,0.279-1.4,0.279-1.96L286.457,268.863L286.457,268.863z"/>
	<path d="M309.486,244.15v8.121h8.819v4.691h-8.819v18.272c0,4.2,1.188,6.581,4.619,6.581
		c1.682,0,2.661-0.14,3.571-0.42l0.279,4.69c-1.189,0.42-3.08,0.841-5.461,0.841c-2.871,0-5.18-0.98-6.651-2.591
		c-1.68-1.89-2.38-4.9-2.38-8.891v-18.482h-5.251v-4.691h5.251v-6.3L309.486,244.15z"/>
	<path d="M354.537,286.155v-20.022l-14.982-27.163h7.002l6.65,13.021c1.75,3.57,3.221,6.441,4.689,9.731h0.141
		c1.26-3.08,2.94-6.161,4.762-9.731l6.789-13.021h6.861l-15.752,27.093v20.092H354.537z"/>
	<path d="M407.039,268.933c0,12.531-8.752,17.992-16.871,17.992c-9.102,0-16.242-6.721-16.242-17.432
		c0-11.271,7.49-17.922,16.801-17.922C400.459,251.571,407.039,258.642,407.039,268.933z M380.227,269.283
		c0,7.42,4.199,13.021,10.222,13.021c5.881,0,10.291-5.53,10.291-13.161c0-5.741-2.871-12.951-10.15-12.951
		C383.377,256.192,380.227,262.913,380.227,269.283z"/>
	<path d="M443.158,276.844c0,3.57,0.069,6.651,0.278,9.311h-5.459l-0.352-5.531h-0.139
		c-1.541,2.73-5.183,6.301-11.201,6.301c-5.32,0-11.691-3.011-11.691-14.842v-19.812h6.16v18.692c0,6.44,2.031,10.851,7.562,10.851
		c4.131,0,7.002-2.871,8.12-5.671c0.351-0.84,0.562-1.96,0.562-3.15V252.27h6.16V276.844z"/>
	<path d="M513.311,284.054c-2.729,1.051-8.19,2.591-14.561,2.591c-7.141,0-13.021-1.82-17.643-6.231
		c-4.062-3.92-6.58-10.221-6.58-17.572c0-14.071,9.729-24.362,25.553-24.362c5.459,0,9.801,1.19,11.83,2.17l-1.539,4.971
		c-2.521-1.19-5.672-2.03-10.432-2.03c-11.48,0-18.974,7.141-18.974,18.972c0,11.971,7.142,19.042,18.203,19.042
		c3.99,0,6.721-0.56,8.121-1.26v-14.071h-9.521v-4.901h15.541L513.311,284.054L513.311,284.054z"/>
	<path d="M526.117,270.333c0.139,8.331,5.391,11.761,11.621,11.761c4.41,0,7.141-0.77,9.381-1.75l1.119,4.41
		c-2.17,0.98-5.949,2.171-11.34,2.171c-10.433,0-16.662-6.931-16.662-17.152s6.02-18.202,15.891-18.202
		c11.133,0,14.002,9.661,14.002,15.892c0,1.26-0.07,2.17-0.209,2.87H526.117z M544.178,265.923c0.07-3.851-1.608-9.941-8.541-9.941
		c-6.299,0-8.961,5.671-9.449,9.941H544.178z"/>
	<path d="M565.176,244.15v8.121h8.822v4.691h-8.822v18.272c0,4.2,1.191,6.581,4.621,6.581
		c1.68,0,2.66-0.14,3.57-0.42l0.279,4.69c-1.189,0.42-3.08,0.841-5.459,0.841c-2.871,0-5.183-0.98-6.652-2.591
		c-1.68-1.89-2.379-4.9-2.379-8.891v-18.482h-5.252v-4.691h5.252v-6.3L565.176,244.15z"/>
	<path d="M114.636,512.391l-11.971-47.185h6.44l5.601,23.872c1.4,5.881,2.661,11.762,3.5,16.312h0.14
		c0.771-4.689,2.24-10.291,3.851-16.382l6.301-23.802h6.371l5.74,23.942c1.33,5.601,2.59,11.2,3.29,16.172h0.141
		c0.979-5.182,2.31-10.433,3.78-16.312l6.23-23.802h6.23l-13.371,47.185h-6.371l-5.95-24.571c-1.471-6.021-2.45-10.643-3.08-15.402
		h-0.141c-0.77,4.69-1.89,9.312-3.641,15.402l-6.721,24.571H114.636z"/>
	<path d="M165.595,462.686h6.161v21.213h0.14c0.98-1.75,2.521-3.36,4.41-4.41c1.82-1.05,3.991-1.682,6.301-1.682
		c4.551,0,11.831,2.802,11.831,14.422v20.162h-6.16v-19.462c0-5.461-2.03-10.011-7.841-10.011c-3.99,0-7.07,2.8-8.261,6.09
		c-0.351,0.91-0.42,1.82-0.42,2.94v20.441h-6.161V462.686L165.595,462.686z"/>
	<path d="M228.248,504.27c0,2.94,0.14,5.812,0.49,8.121h-5.531l-0.489-4.271h-0.21
		c-1.891,2.66-5.531,5.041-10.361,5.041c-6.861,0-10.361-4.831-10.361-9.731c0-8.189,7.281-12.671,20.372-12.602v-0.7
		c0-2.729-0.77-7.841-7.7-7.771c-3.221,0-6.511,0.909-8.892,2.521l-1.4-4.131c2.801-1.75,6.931-2.94,11.201-2.94
		c10.361,0,12.882,7.071,12.882,13.792L228.248,504.27L228.248,504.27z M222.296,495.099c-6.721-0.14-14.351,1.052-14.351,7.632
		c0,4.061,2.66,5.881,5.74,5.881c4.48,0,7.351-2.802,8.331-5.671c0.21-0.7,0.279-1.4,0.279-1.96L222.296,495.099L222.296,495.099z"
		/>
	<path d="M245.326,470.386v8.121h8.821v4.69h-8.821v18.271c0,4.2,1.19,6.58,4.62,6.58c1.681,0,2.661-0.14,3.571-0.42
		l0.279,4.69c-1.189,0.42-3.08,0.841-5.46,0.841c-2.871,0-5.181-0.98-6.651-2.591c-1.68-1.891-2.38-4.9-2.38-8.892v-18.481h-5.251
		v-4.69h5.251v-6.301L245.326,470.386z"/>
	<path d="M290.376,512.391v-20.021l-14.981-27.162h7.001l6.65,13.021c1.75,3.57,3.221,6.44,4.69,9.73h0.141
		c1.26-3.08,2.94-6.16,4.761-9.73l6.79-13.021h6.861L296.538,492.3v20.092L290.376,512.391L290.376,512.391z"/>
	<path d="M342.879,495.169c0,12.531-8.752,17.992-16.871,17.992c-9.102,0-16.242-6.721-16.242-17.434
		c0-11.271,7.49-17.922,16.802-17.922C336.299,477.807,342.879,484.878,342.879,495.169z M316.066,495.519
		c0,7.422,4.198,13.021,10.221,13.021c5.881,0,10.291-5.53,10.291-13.161c0-5.74-2.871-12.951-10.15-12.951
		C319.217,482.428,316.066,489.148,316.066,495.519z"/>
	<path d="M378.998,503.08c0,3.57,0.07,6.65,0.279,9.311h-5.459l-0.353-5.529h-0.139
		c-1.541,2.729-5.183,6.301-11.201,6.301c-5.32,0-11.691-3.011-11.691-14.842v-19.812h6.16V497.2c0,6.439,2.031,10.851,7.562,10.851
		c4.131,0,7.002-2.87,8.121-5.67c0.35-0.841,0.561-1.961,0.561-3.15v-20.723h6.16V503.08z"/>
	<path d="M412.396,504.97c2.729,1.75,6.649,3.08,10.852,3.08c6.229,0,9.871-3.29,9.871-8.051
		c0-4.34-2.521-6.931-8.892-9.312c-7.7-2.801-12.461-6.86-12.461-13.44c0-7.352,6.091-12.812,15.261-12.812
		c4.762,0,8.332,1.12,10.36,2.312l-1.68,4.971c-1.471-0.91-4.621-2.24-8.891-2.24c-6.441,0-8.892,3.851-8.892,7.07
		c0,4.41,2.869,6.581,9.381,9.102c7.98,3.08,11.972,6.931,11.972,13.86c0,7.281-5.32,13.652-16.451,13.652
		c-4.551,0-9.521-1.4-12.041-3.081L412.396,504.97z"/>
	<path d="M451.316,496.569c0.141,8.33,5.391,11.761,11.621,11.761c4.409,0,7.141-0.771,9.381-1.75l1.121,4.41
		c-2.171,0.979-5.951,2.171-11.343,2.171c-10.432,0-16.662-6.933-16.662-17.152s6.021-18.202,15.894-18.202
		c11.131,0,14.002,9.661,14.002,15.893c0,1.261-0.07,2.171-0.211,2.871L451.316,496.569L451.316,496.569z M469.379,492.158
		c0.07-3.852-1.611-9.94-8.541-9.94c-6.301,0-8.961,5.67-9.451,9.94H469.379z"/>
	<path d="M486.387,496.569c0.14,8.33,5.392,11.761,11.621,11.761c4.41,0,7.142-0.771,9.381-1.75l1.119,4.41
		c-2.17,0.979-5.949,2.171-11.34,2.171c-10.432,0-16.662-6.933-16.662-17.152s6.021-18.202,15.892-18.202
		c11.133,0,14.002,9.661,14.002,15.893c0,1.261-0.07,2.171-0.209,2.871L486.387,496.569L486.387,496.569z M504.447,492.158
		c0.069-3.852-1.609-9.94-8.541-9.94c-6.299,0-8.961,5.67-9.449,9.94H504.447z"/>
	<path d="M548.068,465.206v47.185h-6.16v-47.185H548.068z"/>
	<path d="M557.656,506.16c1.891,1.12,5.11,2.38,8.19,2.38c4.41,0,6.511-2.17,6.511-5.04c0-2.94-1.75-4.48-6.23-6.161
		c-6.16-2.24-9.031-5.53-9.031-9.591c0-5.461,4.48-9.941,11.691-9.941c3.432,0,6.44,0.91,8.262,2.102l-1.471,4.479
		c-1.33-0.84-3.779-2.029-6.93-2.029c-3.642,0-5.603,2.101-5.603,4.619c0,2.802,1.961,4.062,6.371,5.812
		c5.811,2.171,8.891,5.111,8.891,10.151c0,6.021-4.688,10.222-12.602,10.222c-3.709,0-7.141-0.98-9.521-2.381L557.656,506.16z"/>
	<path d="M114.636,580.391l-11.971-47.185h6.44l5.601,23.872c1.4,5.881,2.661,11.762,3.5,16.312h0.14
		c0.771-4.689,2.24-10.291,3.851-16.382l6.301-23.802h6.371l5.74,23.942c1.33,5.601,2.59,11.2,3.29,16.172h0.141
		c0.979-5.182,2.31-10.433,3.78-16.312l6.23-23.802h6.23l-13.371,47.185h-6.371l-5.95-24.571c-1.471-6.021-2.45-10.643-3.08-15.402
		h-0.141c-0.77,4.69-1.89,9.312-3.641,15.402l-6.721,24.571H114.636z"/>
	<path d="M165.595,530.686h6.161v21.213h0.14c0.98-1.75,2.521-3.36,4.41-4.41c1.82-1.051,3.991-1.682,6.301-1.682
		c4.551,0,11.831,2.802,11.831,14.422v20.162h-6.16v-19.462c0-5.461-2.03-10.011-7.841-10.011c-3.99,0-7.07,2.8-8.261,6.09
		c-0.351,0.91-0.42,1.82-0.42,2.94v20.441h-6.161V530.686L165.595,530.686z"/>
	<path d="M228.248,572.27c0,2.94,0.14,5.812,0.49,8.121h-5.531l-0.489-4.271h-0.21
		c-1.891,2.66-5.531,5.041-10.361,5.041c-6.861,0-10.361-4.831-10.361-9.731c0-8.189,7.281-12.671,20.372-12.602v-0.7
		c0-2.729-0.77-7.841-7.7-7.771c-3.221,0-6.511,0.909-8.892,2.521l-1.4-4.131c2.801-1.75,6.931-2.94,11.201-2.94
		c10.361,0,12.882,7.071,12.882,13.792L228.248,572.27L228.248,572.27z M222.296,563.099c-6.721-0.14-14.351,1.052-14.351,7.632
		c0,4.061,2.66,5.881,5.74,5.881c4.48,0,7.351-2.802,8.331-5.672c0.21-0.699,0.279-1.399,0.279-1.96L222.296,563.099
		L222.296,563.099z"/>
	<path d="M245.326,538.386v8.121h8.821v4.69h-8.821v18.271c0,4.2,1.19,6.58,4.62,6.58c1.681,0,2.661-0.14,3.571-0.42
		l0.279,4.69c-1.189,0.42-3.08,0.841-5.46,0.841c-2.871,0-5.181-0.98-6.651-2.591c-1.68-1.891-2.38-4.9-2.38-8.892v-18.481h-5.251
		v-4.69h5.251v-6.301L245.326,538.386z"/>
	<path d="M290.376,580.391v-20.021l-14.981-27.162h7.001l6.65,13.021c1.75,3.569,3.221,6.439,4.69,9.729h0.141
		c1.26-3.08,2.94-6.16,4.761-9.729l6.79-13.021h6.861L296.538,560.3v20.092L290.376,580.391L290.376,580.391z"/>
	<path d="M342.879,563.169c0,12.531-8.752,17.992-16.871,17.992c-9.102,0-16.242-6.721-16.242-17.433
		c0-11.271,7.49-17.923,16.802-17.923C336.299,545.807,342.879,552.878,342.879,563.169z M316.066,563.519
		c0,7.422,4.198,13.021,10.221,13.021c5.881,0,10.291-5.53,10.291-13.161c0-5.74-2.871-12.951-10.15-12.951
		C319.217,550.428,316.066,557.148,316.066,563.519z"/>
	<path d="M378.998,571.08c0,3.57,0.07,6.65,0.279,9.311h-5.459l-0.353-5.529h-0.139
		c-1.541,2.729-5.183,6.301-11.201,6.301c-5.32,0-11.691-3.011-11.691-14.842v-19.812h6.16V565.2c0,6.439,2.031,10.851,7.562,10.851
		c4.131,0,7.002-2.87,8.121-5.67c0.35-0.841,0.561-1.961,0.561-3.149v-20.724h6.16V571.08z"/>
	<path d="M452.932,559.669c-0.352-6.581-0.771-14.562-0.771-20.373h-0.139c-1.683,5.461-3.57,11.412-5.951,17.922
		l-8.33,22.894h-4.621l-7.701-22.473c-2.24-6.721-4.061-12.741-5.391-18.343h-0.142c-0.139,5.881-0.489,13.722-0.91,20.862
		l-1.26,20.231h-5.811l3.291-47.185h7.771l8.051,22.822c1.96,5.811,3.5,10.99,4.761,15.892h0.141
		c1.26-4.761,2.939-9.94,5.039-15.892l8.402-22.822h7.77l2.941,47.185h-6.021L452.932,559.669z"/>
	<path d="M473.086,564.569c0.141,8.33,5.391,11.761,11.621,11.761c4.41,0,7.141-0.771,9.381-1.75l1.121,4.41
		c-2.17,0.979-5.951,2.171-11.342,2.171c-10.433,0-16.662-6.933-16.662-17.152s6.021-18.202,15.893-18.202
		c11.132,0,14.002,9.661,14.002,15.893c0,1.261-0.069,2.171-0.211,2.871L473.086,564.569L473.086,564.569z M491.148,560.158
		c0.069-3.852-1.611-9.94-8.541-9.94c-6.302,0-8.961,5.67-9.451,9.94H491.148z"/>
	<path d="M528.527,572.27c0,2.94,0.141,5.812,0.489,8.121h-5.53l-0.488-4.271h-0.211
		c-1.891,2.66-5.531,5.041-10.361,5.041c-6.86,0-10.36-4.831-10.36-9.731c0-8.189,7.28-12.671,20.372-12.602v-0.7
		c0-2.729-0.77-7.841-7.7-7.771c-3.222,0-6.511,0.909-8.892,2.521l-1.399-4.131c2.801-1.75,6.932-2.94,11.201-2.94
		c10.36,0,12.881,7.071,12.881,13.792L528.527,572.27L528.527,572.27z M522.578,563.099c-6.721-0.14-14.353,1.052-14.353,7.632
		c0,4.061,2.66,5.881,5.74,5.881c4.48,0,7.351-2.802,8.33-5.672c0.211-0.699,0.281-1.399,0.281-1.96L522.578,563.099
		L522.578,563.099z"/>
	<path d="M538.465,555.678c0-3.569-0.07-6.37-0.281-9.171h5.461l0.353,5.602h0.139
		c1.681-3.15,5.603-6.302,11.201-6.302c4.691,0,11.971,2.802,11.971,14.422v20.162h-6.159v-19.531
		c0-5.461-2.029-10.012-7.841-10.012c-3.989,0-7.141,2.87-8.262,6.302c-0.279,0.77-0.42,1.819-0.42,2.869v20.372h-6.16
		L538.465,555.678L538.465,555.678z"/>
</g>
</svg>
